<svg width="998" height="696" viewBox="0 0 998 696" fill="none" xmlns="http://www.w3.org/2000/svg">
<path d="M934.853 357.88L946.928 357.894L946.794 357.314L958.268 356.957L956.839 374.457L955.944 375.707L955.5 378.387C955.5 378.387 953.803 377.493 953.178 377.316C952.553 377.139 951.482 378.031 951.482 378.031L949.697 379.46L949.428 380.98L951.033 383.301L953.089 385.445C953.089 385.445 952.908 387.14 952.908 387.499C952.908 387.855 950.854 389.82 950.854 389.82L949.425 390.89L944.78 396.158L934.601 397.32L923.262 400.089L922.547 400.804L923.441 402.232V404.378L919.601 411.967H918.351L917.637 414.467L918.887 415.717L918.53 426.61L932.905 426.79L953.441 436.521L959.87 441.79L961.211 445.451L964.336 446.076L985.941 463.307L983.621 466.342L994.066 467.057L994.871 470.36L996.121 473.485C996.121 473.485 995.675 478.396 995.496 478.756C995.316 479.11 995.851 482.235 996.03 482.595C996.211 482.952 997.28 484.915 997.28 484.915L997.55 487.06L994.87 493.131L986.745 493.665L986.211 495.451L978.89 497.861L977.283 510.986L978.178 511.611L976.303 518.756L971.658 521.701L973.803 523.576L963.357 535.54H961.839L959.694 535.985L958.089 537.506L956.839 537.326L954.783 537.771V539.378L955.229 540.717L953.354 542.235L952.729 543.842L951.39 543.753L949.871 544.732L945.586 545.003L943.175 550.628L937.104 552.857L927.194 544.107L927.55 540.893L926.39 540.624L925.409 541.784L923.89 540.979L923.175 535.354L920.586 536.515L917.372 535.445L916.747 535.624V533.839L908.976 536.607L908.172 537.857L891.476 545.448L889.691 548.573L886.297 548.753L884.512 547.948L873.619 551.787L863.262 554.823L856.744 558.393L852.637 561.607L851.387 562.948L850.047 563.753C850.047 563.753 850.137 565.182 849.691 564.823C849.247 564.466 848.622 565.357 848.622 565.357L847.28 565.714L847.101 563.929C847.101 563.929 845.851 563.659 845.497 563.659C845.14 563.659 845.675 561.964 845.675 561.964L843.265 562.409L844.069 564.375H842.64L841.925 562.679L840.319 563.125L839.604 564.464L838.444 566.429L834.25 568.839L832.729 570.089L832.015 571.608L829.604 573.037H826.836L824.604 573.217L822.64 575.448L819.872 577.412L817.372 578.393L818.175 580.268L817.461 582.412L816.211 583.573C816.211 583.573 810.941 585.092 810.586 585.268C810.229 585.447 807.461 587.143 807.461 587.143L806.211 587.679H803.711L802.55 589.108L801.747 590.179L799.247 589.733L795.675 587.054L792.729 583.573L792.283 581.787C792.283 581.787 789.694 579.733 789.158 579.733C788.625 579.733 788 580.089 788 580.089L787.194 581.518L785.14 583.393L783.8 582.412L780.319 585.268L778.714 583.839L778.533 580.714L777.194 579.464H775.944L774.783 578.304L773.803 578.929L771.033 577.233C771.033 577.233 769.515 575.179 769.515 574.554C769.515 573.929 768 576.062 768 576.062L765.5 574.901L764.158 576.596L763.714 576.507L763.533 575.168L762.375 575.882L761.928 574.721L760.947 575.616L759.161 572.491L757.822 572.135L757.911 573.116L757.286 574.901C757.286 574.901 757.197 575.08 756.842 576.33C756.485 577.58 756.572 578.83 756.572 578.83L755.411 579.811L755.857 583.382L757.286 582.757L758.092 583.561L757.822 584.186L758.893 584.276L760.053 585.616C760.053 585.616 761.303 587.046 761.572 587.401C761.842 587.757 764.786 589.186 764.786 589.186L766.393 589.096L767.286 590.346L767.556 591.327L765.325 594.183L765.595 594.988L765.325 596.238L764.075 598.023L764.164 599.718L765.86 602.398L767.2 605.433L766.845 606.148L764.524 605.167L766.667 613.023C766.667 613.023 765.062 613.023 764.703 613.023C764.348 613.023 763.809 614.004 763.809 614.004L763.095 612.485L761.039 610.699C761.039 610.699 759.61 610.254 758.539 610.164C757.47 610.074 758.45 608.824 758.45 608.824L757.556 608.914L755.95 607.574H753.985L753.181 606.68C753.181 606.68 750.771 606.68 750.411 606.68C750.055 606.68 747.286 607.215 747.286 607.215L746.036 608.465L742.376 606.235L743 603.92V601.598L742.375 598.743L740.408 595.973L736.125 593.295C736.125 593.295 732.283 592.4 731.839 592.49C731.393 592.579 729.428 593.115 729.428 593.115L727.643 592.134L725.053 592.045H722.283L718.803 591.865L716.928 592.845L713.893 593.291L711.928 594.272L711.214 593.201L710.944 590.432L709.875 588.647L709.964 586.417L708.982 583.112L708.803 580.967L708.268 580.432L707.286 579.807L708.447 577.932L707.643 577.663L706.036 577.307L704.253 575.701L700.857 574.095L699.964 574.186L698.982 573.204L697.378 571.954L692.646 571.686L691.931 572.756C691.931 572.756 689.61 575.792 689.431 576.326C689.253 576.862 687.467 577.042 687.646 577.397C687.825 577.753 683.896 577.307 683.896 577.307L679.075 575.701L677.825 576.595L675.235 576.865C675.235 576.865 673.45 575.795 673.006 575.615C672.559 575.436 670.235 576.42 670.235 576.42L667.289 577.579C667.289 577.579 664.7 577.579 664.345 577.579C663.988 577.579 662.289 578.115 662.289 578.115L657.735 575.795L653.539 572.67L646.039 566.15L644.345 562.49L646.664 561.24L650.146 560.704L648.985 559.009L649.431 556.42C649.431 556.42 647.021 555.973 646.396 555.884C645.771 555.795 642.914 552.759 642.914 552.759L638.36 548.204L636.575 549.186L636.131 551.24L633.899 548.829L631.488 544.9L615.149 550.079L613.988 551.24L609.97 547.845L608.274 551.775L606.756 550.17L605.059 552.939L605.774 554.189L601.845 556.509L603.45 556.598L604.521 556.329L607.2 556.24L609.61 556.595L611.306 557.22L612.286 558.291L613.357 558.201L615.322 559.006L617.107 560.436L618.447 560.97L620.678 562.041C620.678 562.041 620.589 564.186 620.589 564.541C620.589 564.897 622.375 567.666 622.375 567.666L623.803 569.897L624.25 576.592L626.569 577.308L627.104 579.092L629.515 579.003C629.515 579.003 633.62 582.038 633.979 582.308C634.336 582.576 635.944 582.663 635.944 582.663L636.3 583.823L634.961 585.342L634.604 590.878L635.675 592.753L636.479 601.683L632.375 599.628L627.018 597.842L621.393 596.237L615.589 595.167L612.107 595.076L609.161 595.256H603.982L599.339 593.917L593.089 590.436L588.893 585.881L580.857 580.076L579.786 584.451L578.806 584.362L578.181 586.772L574.61 587.308L573.896 587.663L575.771 591.503L568.896 595.342L566.041 598.378L565.325 600.073L563.985 598.913L563.45 599.984L561.575 597.663L557.021 600.788L556.041 600.609L555.059 601.323L554.791 603.555L553.541 605.073L551.396 606.413L549.166 607.308L547.47 609.003H546.22L543.631 610.073L538.541 610.253L537.2 609.092H535.056L532.911 608.288L529.878 607.842L525.947 604.538L516.303 615.609V616.859L523.357 622.128L522.018 623.823L521.038 623.378L520.232 623.913L519.163 623.109L518.806 623.823L517.646 622.842L516.666 623.823L517.2 625.609L518.45 626.503L517.381 627.484L519.524 627.93L522.294 628.375L523.812 630.07L525.866 631.141L531.848 636.856L535.062 639.445L532.027 640.875L533.634 642.481L531.134 646.231L533.187 646.945L531.759 647.481L532.562 650.336L535.062 649.442L535.777 649.532L536.134 650.872L537.384 650.247L539.437 652.211L540.687 651.407L541.312 651.942L537.116 655.692L537.922 656.497L537.652 658.728L536.223 660.247L538.902 661.051L540.422 663.461L542.565 661.856L541.047 666.766L533.991 672.481L531.672 672.57L531.047 673.464L527.387 676.68L523.19 679.805L522.565 679.18L519.797 681.859L520.332 682.394L520.062 684.538L516.089 687.962L513.439 688.318L511.671 688.95L510.027 687.561L509.269 688.192L509.017 686.802L507.88 685.664L508.385 684.022L510.153 682.632L505.355 680.736L500.178 679.093L498.534 675.938L499.42 672.908L497.524 669.372L494.621 667.478L489.696 658.385L487.801 656.239L484.771 656.113L480.099 657.502L475.048 658.387L473.91 659.02L474.163 666.469L475.048 670.003L473.784 672.528L473.025 674.799L468.606 673.156H464.818H461.536L456.358 674.041L449.92 674.672L446.385 674.546L440.323 675.431L435.145 676.695L427.569 679.091C427.569 679.091 422.266 679.091 421.634 679.091C421.002 679.091 415.321 677.45 415.321 677.45L409.765 675.051C409.765 675.051 407.744 673.409 407.241 672.654C406.736 671.897 404.717 667.603 404.717 667.603C404.717 667.603 401.434 662.55 400.677 662.045C399.919 661.54 397.394 660.024 397.394 660.024L393.354 659.393L389.439 659.266L386.03 658.128L383.884 655.479L381.233 649.794L378.457 646.26L373.657 644.239L368.732 643.86L364.818 643.102L361.409 640.704C361.409 640.704 359.012 637.294 358.633 636.789C358.254 636.284 355.729 631.738 355.729 631.738C355.729 631.738 354.593 626.435 354.593 625.927C354.593 625.422 352.068 622.141 352.068 622.141L349.292 620.245L346.262 619.74L342.474 620.498C342.474 620.498 340.958 620.876 340.075 620.498C339.191 620.119 336.289 617.975 335.403 617.467C334.519 616.962 331.868 614.06 331.362 613.934C330.857 613.808 326.564 612.29 326.564 612.29L323.281 610.648L320.127 611.406C320.127 611.406 318.106 612.922 316.465 612.922C314.822 612.922 311.793 612.795 311.793 612.795L306.74 612.669L303.712 614.565L301.942 617.975L301.436 620.498L298.786 622.394C298.786 622.394 296.01 623.152 295.504 623.026C294.999 622.899 292.222 622.013 292.222 622.013L289.95 621.129L287.426 620.876C287.426 620.876 285.154 621.003 284.396 620.245C283.638 619.487 282.125 618.224 281.747 617.72C281.367 617.216 278.59 613.679 278.59 613.679L275.813 611.283L272.91 610.146L269.754 610.272L265.84 612.293L264.449 615.197L263.059 620.248L262.428 622.647L261.164 624.793L258.64 626.056L254.726 627.826L248.79 628.457L242.98 628.836L239.571 628.457L236.036 626.942C236.036 626.942 234.267 625.803 233.765 625.424C233.263 625.045 231.744 623.403 231.493 622.901C231.24 622.394 229.598 619.24 229.598 619.24L227.452 617.975C227.452 617.975 226.188 617.217 225.556 617.217C224.925 617.217 222.905 618.101 222.905 618.101L220.634 621.257L218.864 624.54L216.718 627.57L213.561 630.853L211.919 633.629L208.636 638.806L206.49 642.089L203.967 646.129L201.569 651.688L200.306 655.602L199.421 659.768L199.674 668.481V671.762L196.896 675.171L192.982 677.696L186.921 680.22L181.489 682.744L178.081 684.387L174.041 686.911L170.885 689.562L166.718 691.959L163.309 692.212C163.309 692.212 160.658 691.706 159.773 691.201C158.889 690.696 156.491 689.306 155.607 689.306C154.722 689.306 149.545 689.433 149.545 689.433C149.545 689.433 146.768 691.956 146.136 691.956C145.505 691.956 142.601 694.228 142.601 694.228L138.939 695.239L136.162 694.607C136.162 694.607 133.891 692.712 133.386 692.209C132.881 691.703 130.987 689.812 129.85 689.053C128.714 688.294 126.694 686.907 125.684 686.782C124.673 686.655 122.401 686.529 121.896 686.529C121.39 686.529 116.339 688.298 116.339 688.298L112.551 689.689L108.89 689.436C108.89 689.436 106.112 689.056 105.354 688.677C104.597 688.298 103.334 687.919 102.198 687.54C101.062 687.161 98.031 687.413 97.526 687.287C97.021 687.161 91.088 687.666 90.456 687.666C89.824 687.666 83.639 689.436 83.639 689.436L74.926 691.078L72.905 691.962C72.905 691.962 72.021 690.699 72.021 690.068C72.021 689.436 72.021 686.027 72.021 686.027L74.294 683.628L78.713 680.599L80.734 678.328L81.113 676.432C81.113 676.432 79.345 675.296 79.092 674.789C78.839 674.284 77.071 671.128 77.071 671.128L79.344 665.319L79.849 662.668L78.206 660.647L74.293 659.383L70.757 658.245L67.222 656.224C67.222 656.224 65.832 654.581 65.326 653.953C64.821 653.321 62.046 650.67 62.046 650.67L58.889 648.147H55.48L52.197 649.41L50.176 651.808C50.176 651.808 49.291 654.332 48.406 654.458C47.522 654.584 44.872 655.342 44.872 655.342L42.726 655.47L39.948 654.332L37.046 650.796L35.276 647.515L34.771 644.485L31.236 639.94L28.333 638.044L25.177 636.402L23.031 635.517L20.508 634.886L16.973 633.243L14.069 631.347L11.798 629.452C11.798 629.452 10.66 628.063 10.407 627.556C10.155 627.051 9.397 625.535 9.397 625.535V623.514L9.649 622.376L8.639 621.366L5.735 619.849L4.977 618.585H10.281L19.372 620.606L21.016 601.413L18.239 601.034H14.83L11.168 600.277L7.761 599.644L6.875 598.381L4.854 598.634L3.717 597.749L4.349 595.98V594.211L3.465 592.065L3.085 589.919V588.025L1.694 586.255L0.431 583.353L1.568 582.341L4.472 585.244L6.869 586.634C6.869 586.634 8.513 586.508 9.015 586.382C9.52 586.255 12.171 584.865 12.171 584.865L15.452 585.623H25.177L29.47 585.497L32.627 586.634L35.15 586.761L37.171 585.37L38.686 583.855L37.928 582.464L35.151 580.822L32.88 579.431L32.248 577.285L33.133 574.13L34.143 572.866H35.785L38.689 571.981L40.458 572.108C40.458 572.108 43.74 572.36 44.245 572.234C44.752 572.108 47.907 571.096 47.907 571.096L49.298 568.95L51.319 565.542L51.698 563.773C51.698 563.773 51.319 562.256 51.319 561.752C51.319 561.246 52.708 559.481 52.708 559.481L54.729 559.355L57.127 560.365C57.127 560.365 58.012 560.618 58.644 560.239C59.275 559.86 60.664 559.481 61.168 559.481C61.674 559.481 63.944 559.86 63.944 559.86L65.334 560.112L67.48 556.578L67.986 555.819V553.043L67.228 552.031L67.354 550.895L68.617 550.642L75.814 536.372L77.96 537.004L77.58 533.217L81.875 526.525L85.03 523.496L84.146 521.6L84.904 519.831L85.914 520.21C85.914 520.21 87.053 519.072 86.927 518.567C86.8 518.062 91.978 509.475 91.978 509.475L94.124 505.687L95.641 501.142L99.429 494.451L101.7 490.03L106.624 493.944L110.412 495.965L114.453 497.229L118.367 496.85L122.534 494.452L125.312 489.906L128.216 483.718L129.605 481.822C129.605 481.822 130.868 480.18 131.751 480.18C132.635 480.18 135.159 479.801 135.918 480.18C136.677 480.559 138.821 482.704 138.821 482.704L142.861 486.871L147.66 490.532L151.827 492.302C151.827 492.302 156.246 493.817 156.752 493.817C157.258 493.817 161.552 494.702 161.552 494.702H165.213L168.747 495.966L172.787 498.995L176.323 501.141C176.323 501.141 180.111 501.141 180.995 500.888C181.881 500.635 185.794 498.867 185.794 498.867L189.455 494.7L192.359 490.281C192.359 490.281 195.515 487.629 196.273 487.629C197.031 487.629 200.692 486.872 201.324 486.872C201.955 486.872 206.375 488.641 206.375 488.641L210.037 488.767L214.962 487.757L221.78 484.853C221.78 484.853 224.936 483.969 225.441 483.969C225.946 483.969 229.987 482.452 229.987 482.452L233.775 480.683L235.544 478.285L237.565 476.264L240.09 474.747L244.257 473.863C244.257 473.863 247.285 475.126 248.17 475.506C249.055 475.885 248.044 476.137 249.687 476.137C251.329 476.137 252.591 476.137 252.591 476.137H255.366L257.512 476.895C257.512 476.895 261.3 476.264 262.69 476.264C264.079 476.264 266.225 475.885 266.856 475.885C267.488 475.885 273.422 479.546 273.422 479.546L274.685 479.673L277.589 482.449L279.86 484.218L283.143 485.734L288.573 487.377L294.257 489.02L297.791 490.284C297.791 490.284 298.55 493.818 299.056 493.818C299.561 493.818 301.831 497.606 301.831 497.606L306.125 500.889L310.165 502.278L317.11 503.29L321.529 504.301L326.58 507.078L330.494 509.98L332.515 511.371L338.198 505.94L340.219 507.33H340.472L340.093 504.301L341.356 503.669L343.124 503.796L344.263 502.532L343.251 497.859L340.728 491.924L339.97 491.039L338.831 491.165L339.97 490.154L341.991 489.143L342.748 487.374L343.507 484.471L340.983 481.568L340.225 481.694L338.329 478.285L336.94 476.642L337.571 474.496L336.813 473.865V470.456L335.549 468.31L334.664 466.92L332.393 465.909L332.14 466.92L330.244 465.783L328.602 464.14L327.464 462.371L325.569 461.234L324.432 459.717V456.308L324.558 455.045L323.294 452.647L321.651 451.636L322.283 450.499L322.157 447.848L323.801 447.722V443.7L322.157 443.321L322.662 437.89L321.778 436.754L321.904 434.356H323.674L323.927 431.452L322.157 430.568L315.845 427.539L311.425 426.022L312.814 423.751L313.32 423.118C313.32 423.118 313.067 422.487 313.067 421.982C313.067 421.477 313.699 418.953 313.699 418.953H306.502L306.376 416.806L308.145 401.783L307.135 399.131L308.524 396.734V395.217L309.156 392.567L307.893 390.924V387.769L306.502 386.631L305.238 386.252L306.25 385.367H304.607L305.112 383.851L304.607 381.453L305.365 380.568L304.354 378.17L304.102 377.287L302.459 376.402L303.47 375.138L304.607 373.621L303.218 372.358L302.079 368.57L299.556 369.455L300.44 371.601L298.797 371.854L297.533 370.337L291.851 371.854L292.861 373.622L296.775 375.643L296.397 376.528L293.619 380.062L295.765 380.315L295.26 383.85L291.598 382.46L289.703 387.132L292.227 388.143L291.595 389.913H290.079L287.807 393.573L286.418 393.194L285.532 391.804L282.125 392.184L280.229 391.93L280.482 393.069L279.471 394.331L277.828 394.206L277.576 397.362H275.933L274.544 399.13L273.152 398.499H271.006L269.11 399.383L268.226 399.888L267.468 399.383L266.331 400.521L263.427 397.997H262.038L259.26 396.101L257.114 395.216L256.482 392.566L253.959 391.808L252.694 391.049L253.453 389.534C253.453 389.534 254.338 387.261 254.969 388.017C255.601 388.775 255.727 389.28 255.727 389.28L256.611 387.009L258.884 384.863L260.399 382.717L262.545 382.21L264.187 380.696L267.723 379.304L266.965 376.907L266.838 371.856L266.333 368.7L271.763 363.648L271.511 362.258L269.49 360.868L267.344 360.364L268.48 359.1L271.889 360.11L274.161 359.352L276.182 360.741L277.445 361.878L277.951 360.616L279.215 361.626L279.467 359.857L276.816 358.972L277.954 355.817L274.925 356.827H273.661L271.891 354.303L272.144 351.527L273.154 352.032L274.167 346.854L276.313 347.486L278.083 346.348L281.616 345.338L281.49 343.949L282.376 341.676L278.841 339.279H277.703L275.557 337.762L274.799 337.257L273.535 337.383L274.673 331.953L272.401 331.827L266.592 330.438L264.571 329.047L266.341 327.911L265.962 326.648L266.846 322.607L265.205 322.354L265.076 321.09L264.697 320.206L263.182 319.322L260.152 318.438V317.807V317.048H262.424L264.066 316.922V315.785L251.565 314.648L245.756 313.637L243.105 311.365L242.347 309.596L242.853 309.217L242.347 299.494L241.337 299.241L242.6 296.844L243.105 293.813C243.105 293.813 242.6 289.773 242.6 289.015C242.6 288.257 242.221 284.09 242.221 284.09L243.231 281.439L242.853 281.313L242.979 279.417L242.221 279.671V281.313L240.705 280.555L236.791 277.651L232.624 273.989L226.311 268.686L224.922 273.484L216.841 267.046L223.404 241.412L255.982 232.699L255.855 230.805L258.633 230.173L259.138 229.036L260.906 229.415L262.171 229.036L262.929 230.679L292.476 221.713L293.613 220.071L315.965 152.643L322.907 141.91L326.443 140.773L332.882 141.026L334.271 142.163L335.408 144.435L337.052 141.784L353.72 134.335L357.76 138.881L371.397 127.138L375.817 126.885L380.742 124.613L382.512 124.487L384.154 122.971L385.797 121.328L387.187 119.813L391.354 118.55L392.238 119.307L398.676 114.13L399.056 111.858L401.077 111.1L398.931 107.565L401.453 106.175L403.978 109.584H405.494L407.893 106.554L410.543 104.911L413.572 102.891L413.825 101.754L418.244 98.724L424.557 93.42L428.598 89.632L430.366 88.873L435.796 83.191L440.089 79.782L443.751 75.741L442.867 74.731L449.685 64.377L445.771 59.073L454.736 42.784L459.534 44.93L460.418 41.774L462.691 39.122L462.438 36.725L464.08 32.179L465.218 23.214L469.257 19.552L469.512 15.132L471.658 8.31399L472.29 2.88399L478.478 0.358995L480.12 0.864995L480.625 0.106995L482.395 2.75799L483.153 2.63199L488.583 9.19599L494.268 16.772L498.561 24.096L502.728 33.945L504.999 41.774L506.389 42.531L510.303 39.629L511.82 40.134L519.143 33.442L523.311 33.821L527.096 40.26L539.346 26.875L546.668 19.047L551.466 14.375H554.623L556.895 15.511L559.671 13.995L560.936 11.092L569.015 14.754L572.803 17.277L577.35 21.95L579.119 26.748L580.129 29.778L582.907 33.819L586.947 36.849L591.872 38.365L596.418 41.774L599.574 45.309L601.469 49.981L601.09 54.148L602.102 58.567L601.975 63.113L601.343 65.512L601.469 67.91L602.481 70.308L605.51 72.076L608.161 74.98L610.938 79.274L608.666 81.42L609.803 83.314V86.218L608.287 88.113L607.277 92.911L608.035 95.436L605.762 101.624H607.28L608.795 102.887V104.781L610.941 106.424L611.825 106.298L613.341 107.308L614.732 108.824H617.003L616.245 110.088L614.477 113.496L613.464 114.633L614.348 118.169V122.588L612.58 125.491L608.919 128.521L602.355 130.291L597.049 131.68C597.049 131.68 595.534 132.438 595.029 132.438C594.523 132.438 591.114 133.195 591.114 133.195L588.463 134.712L587.958 138.753L588.716 141.529L590.107 142.161L593.64 143.298L594.779 143.172L597.05 146.075L596.798 147.213L592.505 149.737L588.843 150.368L586.948 152.893L587.327 156.302L586.822 157.818L587.075 159.839L587.833 161.733L587.075 165.647L585.811 166.658L587.075 167.416L585.936 168.806L584.547 177.645L583.031 177.897L582.021 179.287L582.4 181.308L584.294 181.56L585.557 182.192L585.811 181.181L589.345 181.308L589.471 184.59L589.724 186.485H591.87L591.239 188.757L590.86 191.66L591.618 195.322L591.87 196.08C591.87 196.08 592.881 194.69 592.881 195.196C592.881 195.701 594.397 197.342 594.397 197.342H597.426L599.322 196.836L600.08 195.572L601.343 196.204L602.1 198.225L602.734 199.614L603.113 202.392L603.997 204.663L605.891 206.432L606.904 210.346C606.904 210.346 606.271 212.87 606.271 213.503C606.271 214.134 607.03 216.532 607.03 216.532L608.672 218.678L611.702 221.456L612.586 224.738L613.092 228.147L613.849 229.79L615.745 231.684L616.755 232.063L615.745 233.832L614.353 234.59L613.343 237.114L612.712 239.513L613.848 240.397H615.994L618.391 241.281L621.674 243.427L623.064 244.437C623.064 244.437 623.949 243.301 624.454 243.301C624.96 243.301 626.725 242.922 626.725 242.922L627.737 242.164L628.495 243.806L629.632 244.943L629.505 246.712L627.484 248.101L625.841 249.238L624.894 250.184L623.317 251.131L622.684 253.467L623 256.75L624.957 259.591L626.282 261.17C626.282 261.17 628.553 261.863 628.805 261.863C629.058 261.863 630.762 262.809 630.762 262.809C630.762 262.809 631.646 263.062 631.9 263.062C632.154 263.062 633.164 263 633.164 263L634.236 264.769L634.929 266.284L634.236 268.43C634.236 268.43 634.048 269.441 634.55 269.503C635.056 269.565 635.75 269.882 635.813 269.63C635.876 269.377 636.826 268.557 636.826 268.557L637.265 267.357L637.771 267.105C637.771 267.105 636.129 265.589 635.876 265.4C635.623 265.212 635.308 264.516 635.182 264.201C635.056 263.886 634.298 262.685 634.298 262.433C634.298 262.18 634.298 260.917 634.298 260.917L637.075 261.989L637.515 260.979L634.547 260.158L634.863 259.086C634.863 259.086 635.807 258.201 636.06 258.075C636.313 257.948 639.408 256.876 639.408 256.876L643.575 255.677L645.154 255.614L648.5 259.593L649.889 258.899L651.026 259.593L656.332 259.404L658.541 259.846L663.528 261.74L662.077 257.573L662.582 257.133C662.582 257.133 665.737 259.531 666.307 259.722C666.877 259.911 667.191 259.974 667.57 259.848C667.951 259.722 668.962 259.216 669.275 259.216C669.59 259.216 671.864 259.657 672.117 259.722C672.371 259.784 673.695 260.036 673.695 260.036L674.894 261.047L676.977 260.858L677.988 260.353L678.874 260.668C678.874 260.668 678.495 261.3 678.747 261.361C679 261.424 679.758 262.056 679.884 261.677C680.01 261.298 680.831 261.045 680.831 261.045L681.903 261.677C681.903 261.677 681.965 261.172 682.409 261.235C682.849 261.298 685.437 261.298 685.437 261.298C685.437 261.298 686.384 260.793 686.449 260.414C686.511 260.034 687.207 259.846 687.207 259.846C687.207 259.846 688.849 260.604 689.164 260.856C689.478 261.109 691.122 261.677 691.374 261.677C691.627 261.677 692.511 261.991 692.511 261.991L693.142 261.424C693.142 261.424 696.046 260.856 695.731 260.73C695.418 260.604 697.877 260.098 697.877 260.098L701.097 258.457L701.665 259.214L704.759 257.824L704.821 259.467L707.03 259.655L707.411 262.75L719.786 262.561L721.995 261.424L729.317 261.235L729.569 256.88C729.569 256.88 728.811 253.407 729.064 253.407C729.317 253.407 731.653 253.407 731.653 253.407L731.591 252.017L731.023 251.829L733.675 250.756L735.253 251.262L735.505 248.547L745.291 248.609L753.183 244.442L753.625 246.463L756.781 247.726L762.211 247.411L765.053 247.032L765.999 247.411H768.648L771.679 248.043L771.617 252.272L774.206 255.492L775.848 258.143L777.047 261.931L778.373 264.456L780.267 266.919C780.267 266.919 782.982 268.939 783.235 269.128C783.488 269.316 784.626 270.328 784.626 270.328L784.814 271.273L788.541 274.683L789.486 276.704L791.382 279.734L792.014 281.629L792.455 283.271L794.413 284.975C794.413 284.975 795.676 285.228 796.307 285.228C796.939 285.228 798.517 285.102 798.896 285.102C799.275 285.102 800.666 286.049 800.666 286.049L799.906 286.175L800.412 290.721L801.105 292.678L801.926 294.003L802.052 295.519L804.262 297.729L805.209 299.497L805.522 301.014L807.479 301.328L809.689 302.465L811.71 302.78L812.973 304.926C812.973 304.926 813.793 305.431 814.046 305.431C814.298 305.431 816.255 305.178 816.695 304.863C817.137 304.549 820.863 303.095 820.863 303.095L824.271 301.957L826.292 301.831L832.416 303.221L839.677 304.041C839.677 304.041 845.422 305.305 845.674 305.305C845.927 305.305 848.263 305.242 848.704 305.178C849.144 305.116 857.922 303.221 858.235 303.157C858.551 303.095 866.064 301.199 866.064 301.199L867.96 303.095L869.285 303.409L874.649 309.407L872.947 311.112V312.816L875.344 317.109L876.29 316.289L877.49 318.058L878.753 316.985L879.763 316.923L883.49 313.261C883.49 313.261 884.753 313.766 884.753 313.513C884.753 313.261 886.079 310.988 885.7 310.609C885.321 310.231 885.069 309.978 885.069 309.978L887.278 310.04C887.278 310.04 887.216 308.335 887.592 308.715C887.969 309.094 888.476 309.534 888.476 309.534L889.867 309.597L892.961 314.331L893.908 311.302L895.864 308.019L906.661 313.955L906.472 314.649L907.419 315.154L909.628 315.343L910.954 317.615L910.575 319.636L911.08 319.574L910.765 320.899L911.27 321.972L910.386 322.351L909.123 324.435L910.639 324.561L911.018 325.634L910.386 326.771L911.018 327.591L910.578 328.981H909.884L910.768 330.811L911.336 332.137L911.083 338.261L908.558 340.85L904.833 346.974L913.925 350.952L923.331 352.784H924.782L932.231 356.823L933.178 356.698L934.853 357.88Z" fill="#990066"/>
<path d="M890.596 492.229L886.934 490.461L882.388 489.323L876.2 488.439L873.171 487.302L869.384 486.923L867.613 487.68L866.603 486.038L865.593 486.544L862.815 485.785L859.153 486.164L857.764 484.775L854.229 486.164L849.43 484.018L842.865 485.407L831.629 491.469L834.657 494.626L831.629 497.908L827.335 500.305L826.576 502.326L827.462 504.222L826.323 507.631L825.187 507.252L823.924 508.136L819.252 509.274L818.239 513.314L816.093 515.838L817.356 516.722L812.684 527.076L812.937 532.886L813.568 534.276L811.297 534.023L812.055 535.919L809.782 537.308L810.795 538.32L808.143 539.962L807.638 540.72L805.239 540.847L801.704 543.244L803.6 548.296L805.997 552.968L806.378 555.871L806.125 558.775L805.366 558.901V560.292L806.378 560.544L806.252 562.942L807.515 563.574L807.01 565.216L808.02 566.607L808.399 568.753L807.262 571.15L805.241 573.927L802.97 575.444V576.96L801.581 576.834L801.452 580.747L799.811 581.253L799.684 584.409L797.286 588.323" stroke="#B0A8A8" stroke-width="2" stroke-linecap="round" stroke-linejoin="round"/>
<path d="M444.929 440.396L449.283 433.26L458.503 420.507L464.691 416.278L470.247 415.964L480.917 418.235L491.081 417.983L490.829 406.049L497.079 407.121L516.082 393.17L516.842 393.232L521.893 397.211L515.075 406.996L511.92 418.931L514 451.76L514.884 452.391H516.652L515.389 453.212L517.22 455.107L518.672 457.696L518.925 459.906L519.556 461.675" stroke="#B0A8A8" stroke-width="2" stroke-linecap="round" stroke-linejoin="round"/>
<path d="M516.839 392.847C516.839 392.847 517.643 384.544 517.553 384.187C517.464 383.831 519.158 376.956 519.158 376.956L519.875 373.652L516.839 374.367L510.053 374.277L505.857 373.562H498.357L491.839 370.347L482.464 368.203L472.373 350.523L471.214 343.203L470.944 334.097L469.964 330.883L462.018 328.203L442.732 328.383L442.911 314.722L438.717 305.615L444.251 298.562L437.556 290.437L433.985 288.116L431.931 288.562L411.036 290.883L404.252 281.863L399.967 277.845L398.181 268.202L405.771 267.845L407.021 263.738L404.431 259.095L404.161 257.488L401.842 257.31L400.322 257.845L400.232 257.131L399.518 250.791L397.464 248.202L411.124 245.077L416.479 242.666L413.086 232.486L410.14 224.986L411.3 224.006L427.104 223.202L435.498 224.006L436.393 224.361L437.732 223.468L443.982 223.647L446.036 222.129L449.607 221.414C449.607 221.414 452.732 222.308 453.268 222.308C453.803 222.308 456.482 223.827 456.482 223.827L461.126 226.416L465.232 225.077L467.197 232.486L469.607 234.631L470.501 236.506L473.271 233.381L480.325 228.381L488.629 225.881L502.289 222.756L511.309 219.631L524.345 221.774L531.934 220.793C531.934 220.793 535.774 214.722 535.774 214.363C535.774 214.008 536.129 211.508 536.129 211.508L538.36 210.883V210.079H541.217L542.11 211.418L540.235 220.168L541.842 220.347L548.896 218.562H551.396H553.092L554.342 217.581L555.771 217.67L556.039 218.474L556.845 217.67L560.414 218.026L562.021 217.312L563.271 219.008L562.2 220.883L561.396 222.043L561.485 223.113L562.825 222.935L562.47 224.363L565.059 224.454L565.774 225.079L564.792 227.758L566.312 229.543V231.687L565.956 232.847L564.976 233.026L564.795 234.097L563.101 234.008L562.655 239.901L561.405 242.401L559.262 241.866L561.491 246.062L560.241 247.401L561.312 248.383L561.402 250.972L563.545 254.187L564.616 254.456L565.42 257.224L564.44 257.581L564.795 261.599L564.081 264.189L568.277 264.099L568.902 265.618L571.759 266.689L571.488 268.118L572.024 271.333L571.934 274.637L572.738 274.993L573.453 276.958L573.542 278.297L574.613 281.066L574.167 281.87L574.348 282.764L575.241 283.12L575.152 284.46L575.598 286.245L576.578 286.96L576.934 287.585L576.309 288.21L577.914 289.191L576.396 288.922L575.502 289.637L575.411 291.422L574.161 294.368L573.982 296.689L572.911 297.849L572.822 299.01L573.447 300.885C573.447 300.885 574.161 301.955 574.967 301.955C575.771 301.955 575.771 303.385 575.771 303.385L577.467 305.08L578.806 307.135L579.786 310.08L581.036 313.83L581.752 317.046L581.842 319.099L581.306 321.778L580.681 322.582L580.86 323.743L583.181 327.048L584.342 328.653L586.306 330.618L586.217 332.048L586.752 332.673L587.021 335.441L588.627 339.816L585.056 342.405L583.717 346.334L573.717 352.05L571.572 357.229L569.072 359.104L567.822 360.8L568.092 363.12L565.592 364.995L564.877 367.495L564.161 368.925L564.518 371.514L563.268 372.764L564.607 375.264L564.518 377.584L563 377.401L561.839 379.811L558.893 383.561L556.036 387.846L553.982 391.151L551.126 396.955" stroke="#B0A8A8" stroke-width="2" stroke-linecap="round" stroke-linejoin="round"/>
<path d="M375.322 249.634H377.554L380.5 250.438C380.5 250.438 383.534 250.707 383.979 250.707C384.426 250.707 388.176 250.617 388.176 250.617C388.176 250.617 391.031 250.438 391.39 250.348C391.746 250.259 392.996 249.009 392.996 249.009L394.425 248.205H396.836" stroke="#B0A8A8" stroke-width="2" stroke-linecap="round" stroke-linejoin="round"/>
<path d="M813.067 304.846L812.688 306.867L813.825 309.77L812.435 312.674L810.666 319.239L808.142 323.406L807.006 323.279L803.723 324.67L800.061 326.438L798.418 326.564L796.272 327.575L797.03 329.218L798.294 329.975L799.305 331.996L800.947 332.501L800.821 334.522L802.085 335.911L802.844 334.775L804.233 335.785H805.749L806.887 337.302L807.645 340.457L809.161 341.595L809.413 341.469L810.172 342.984L810.552 345.257L809.54 346.267L810.425 348.288C810.425 348.288 809.792 350.057 810.425 350.184C811.057 350.311 812.194 351.067 812.194 351.067L812.446 352.331L811.057 356.119L811.815 355.993L810.046 358.139L809.918 360.16L808.024 362.306L807.14 364.202L807.519 365.339V366.73L807.014 368.75L806.128 369.635L805.243 371.906L805.117 373.297H804.359L802.088 371.906L802.593 369.885H800.949V368.747L798.928 367.736L797.412 368.747L793.245 366.853L791.728 367.736L789.582 367.232L785.794 368.115L775.565 376.576L773.042 380.995L770.138 383.898L768.369 382.888L764.075 384.152L764.202 386.173L762.938 387.815L764.581 391.224L763.948 392.614L766.221 393.372L766.347 395.77L767.736 400.063L768.62 403.345L768.748 405.114L770.138 407.26V410.415V414.456L771.022 416.602L772.539 419.251L773.55 420.641L775.696 419.884L780.747 431.373L783.399 439.833L796.91 442.863L796.278 446.145L795.268 446.271L796.657 446.651L797.795 448.672L798.552 450.441L803.099 454.987L806.128 458.775" stroke="#B0A8A8" stroke-width="2" stroke-linecap="round" stroke-linejoin="round"/>
<path d="M418.476 609.281C418.476 608.902 423.653 598.802 423.653 598.802L426.431 598.109L427.63 599.181L427.504 599.94L429.082 600.254L430.85 601.832L438.616 595.202L441.712 591.794L444.048 592.992V593.75L447.016 593.812L447.581 591.728L451.56 583.962L451.308 582.131L450.235 581.247L450.55 580.11L451.56 579.038L446.888 575.629L440.638 572.155C440.638 572.155 437.291 571.083 436.976 571.017C436.661 570.955 432.368 569.754 432.368 569.754L427.317 569.44C427.317 569.44 423.465 568.555 422.518 568.176C421.572 567.797 416.773 566.533 416.582 566.28C416.394 566.028 411.658 564.071 411.658 564.071L407.491 562.933L401.681 562.113L396.189 560.283C396.189 560.283 390.38 556.875 390.127 556.683C389.874 556.495 387.664 555.672 387.664 555.672" stroke="#B0A8A8" stroke-width="2" stroke-linecap="round" stroke-linejoin="round"/>
<path d="M620.822 409.776C620.949 409.522 621.643 407.692 621.643 407.692L623.158 406.619L625.936 405.547L627.199 403.716C627.199 403.716 627.641 401.821 628.146 401.633C628.651 401.444 630.167 400.307 630.544 400.055C630.923 399.802 632.754 397.782 632.754 397.782C632.754 397.782 632.881 397.024 633.259 396.899C633.638 396.772 635.53 396.079 636.037 395.826C636.542 395.573 638.183 393.555 638.183 393.555L639.193 388.315L640.079 383.77L641.529 381.874L644.56 381.308C644.56 381.308 646.896 381.56 647.337 381.496C647.777 381.434 650.052 381.434 650.431 381.055C650.81 380.676 653.525 379.224 653.525 379.224C653.525 379.224 655.608 379.162 655.924 379.286C656.237 379.412 658.512 380.99 658.891 380.802C659.27 380.613 660.028 380.613 660.469 380.045C660.909 379.477 662.932 378.527 662.932 378.214C662.932 377.898 663.879 376.318 663.879 376.318L664.192 375.812L664.823 376.823L664.318 377.769L663.434 378.527C663.434 378.527 663.246 379.474 663.497 379.474C663.748 379.474 664.76 381.117 664.76 381.117L664.128 382.82L665.073 383.642C665.073 383.642 665.073 383.2 665.327 383.263C665.58 383.325 666.717 384.273 666.717 384.273L665.77 382.316L665.202 381.243C665.202 381.243 665.202 378.023 665.202 377.769C665.202 377.517 665.391 373.665 665.391 373.665L667.348 373.603C667.348 373.603 667.727 374.296 667.727 374.044C667.727 373.79 667.665 371.898 667.665 371.898L666.339 367.794L667.665 367.353L668.043 365.521L669.433 365.459L672.148 364.261L671.642 363.82L672.653 362.051L673.284 362.618L673.978 361.545L674.925 362.366L676.756 362.428L677.448 362.995L678.966 362.682L681.049 363.5C681.049 363.5 682.88 364.067 683.133 364.067C683.385 364.067 684.711 364.256 684.711 364.256C684.711 364.256 685.469 364.889 685.782 364.889C686.097 364.889 690.075 363.563 690.075 363.563L691.148 363.436L692.159 363.563L693.676 361.858C693.676 361.858 695.192 357.124 695.318 356.871C695.444 356.619 696.265 355.42 696.265 355.42L696.327 354.535L705.294 349.549V349.17L707.377 348.097L707.565 348.537L710.343 347.339L712.553 346.833L723.854 340.395L740.016 342.225L740.079 346.898L742.415 349.549L741.594 350.242L742.92 350.43L745.509 352.828L747.213 351.503L758.641 345.819L760.537 346.451L758.328 352.575L760.222 355.922L760.854 358.764L758.012 362.426L772.658 373.03L775.435 376.252" stroke="#B0A8A8" stroke-width="2" stroke-linecap="round" stroke-linejoin="round"/>
<path d="M275.539 529.415L276.549 529.227L277.307 528.66L278.191 528.472C278.191 528.472 278.507 529.736 278.759 529.736C279.012 529.736 280.337 530.05 280.337 530.05L280.716 529.862L281.6 530.808L284.821 530.556L300.604 530.494L302.75 533.968L304.201 533.526L305.844 532.328C305.844 532.328 304.139 529.487 304.139 529.172C304.139 528.857 304.139 519.008 304.139 519.008L301.614 519.766L296.816 517.242L293.217 511.496L296.816 511.118L301.614 512.38L305.718 511.244L308.115 510.803L311.084 512.571L311.146 513.078L313.418 512.89L313.671 513.457L314.681 512.637L316.324 512.196C316.324 512.196 317.714 509.673 317.967 509.545C318.219 509.419 320.996 507.524 320.996 507.524L322.134 505" stroke="#B0A8A8" stroke-width="2" stroke-linecap="round" stroke-linejoin="round"/>
<path d="M81.085 527.838L85.125 524.555H90.303L94.47 526.701L90.303 532.258L100.026 530.994L105.837 528.344L114.676 527.839L115.686 526.322H117.076L118.593 532.132L129.323 529.355L134.503 526.578L142.71 518.118L138.543 513.698L137.404 511.048L134.881 509.405L142.963 504.733L145.109 504.353L142.459 502.082L150.414 492.105" stroke="#B0A8A8" stroke-width="2" stroke-linecap="round" stroke-linejoin="round"/>
<path d="M633.133 477.581V479.224H636.416L637.174 479.857L638.942 478.34L641.846 479.477L644.495 479.857L646.013 479.224L648.916 480.109L652.955 479.731L656.364 478.719L658.51 479.224L660.279 480.488H661.922L662.175 479.477C662.175 479.477 663.817 479.604 664.321 479.731C664.826 479.857 667.857 480.615 667.857 480.615L669.372 481.879L670.511 482.384L671.269 480.615L670.511 479.857L671.521 478.34L669.25 477.329L668.617 476.445L667.102 475.94L666.47 475.054L668.993 472.783L669.879 472.025L670.637 473.288H671.9V471.773L673.543 474.297L673.797 475.307L673.164 476.95L674.807 477.835C674.807 477.835 674.049 478.214 674.554 478.34C675.06 478.467 675.565 478.214 676.07 478.214C676.575 478.214 676.701 478.845 676.701 478.845L677.713 478.214L678.472 478.972L677.333 481.496L679.229 481.243L680.366 482.128C680.366 482.128 680.492 482.886 680.998 482.886C681.504 482.886 681.883 482.633 682.01 481.622C682.136 480.612 683.526 479.854 683.526 479.854L683.273 478.842L685.419 478.337V476.947L680.62 475.304L681.505 472.527L682.264 473.538L684.032 472.275L686.557 472.654L687.441 474.17L690.218 475.813H691.481L692.366 476.066C692.366 476.066 693.25 476.445 693.756 475.94C694.261 475.433 695.02 474.297 695.02 474.297L697.796 474.549L704.235 467.226L705.878 469.247L705.75 470.384L706.635 472.656L708.278 473.794L709.289 473.667L709.415 475.309L710.174 476.573L711.943 477.205L713.964 478.974L719.396 481.371L723.056 482.635C723.056 482.635 725.707 483.393 726.212 483.393C726.718 483.393 729.495 483.646 729.495 483.646H734.798L741.111 483.267L745.91 482.509L746.415 485.033L744.647 485.412L744.267 488.189L744.773 489.579L746.415 488.695L748.561 487.936C748.561 487.936 750.203 489.326 750.958 489.453C751.715 489.579 752.854 489.705 753.609 489.705C754.364 489.705 755.63 489.453 755.63 489.453L757.902 488.947C757.902 488.947 758.407 487.305 757.902 487.178C757.397 487.052 756.764 486.547 756.764 486.547L757.271 484.778L756.385 482.38L755.248 482.885L752.092 480.99L757.144 479.094C757.144 479.094 758.469 480.105 758.469 479.787C758.469 479.471 759.354 478.841 759.354 478.841L759.921 479.408L760.361 478.903L762.066 479.723L762.38 478.144L764.401 477.577L771.283 485.659" stroke="#B0A8A8" stroke-width="2" stroke-linecap="round" stroke-linejoin="round"/>
<path d="M605.102 464.323L606.87 462.68L607.882 459.651L609.398 457.001L612.554 455.105L614.322 453.336L615.333 447.024C615.333 447.024 616.472 445.128 616.724 444.373C616.977 443.615 617.735 441.596 617.735 440.838C617.735 440.08 617.103 436.292 617.103 436.292L615.459 434.523L613.313 432.251L611.924 431.241L614.952 432.251C614.952 432.251 617.982 431.746 618.614 431.619C619.245 431.493 621.77 430.23 621.77 430.23L623.665 427.958L625.937 425.181L628.588 425.055L631.238 426.193L631.995 428.717C631.995 428.717 632.248 428.59 633.387 428.843C634.523 429.095 636.415 429.601 636.415 429.601L639.319 427.831L640.836 426.947L640.963 430.229L640.583 433.765H642.099L639.827 437.679L640.966 437.931L640.587 439.069L642.229 439.762L640.903 441.531L641.408 442.731L642.102 442.919L641.976 443.991L641.471 443.929L641.533 445.193L639.764 445.381V446.201L637.428 447.591L634.777 446.832L635.092 449.357H633.196L633.448 452.83H632.756L632.63 456.304L630.673 456.556L629.155 458.766L630.102 458.828L631.301 458.134L632.059 458.387L632.312 459.145L631.806 459.904L631.994 461.546" stroke="#B0A8A8" stroke-width="2" stroke-linecap="round" stroke-linejoin="round"/>
<path d="M335.644 605.114L338.232 603.471C338.232 603.471 343.22 601.45 343.472 601.2C343.725 600.947 352.753 597.853 352.753 597.853C352.753 597.853 351.741 596.716 350.857 596.463C349.973 596.21 348.586 595.831 348.586 595.831C348.586 595.831 350.48 594.567 349.723 594.189C348.965 593.81 347.702 591.979 347.702 591.979L348.713 592.167C348.713 592.167 348.524 591.6 348.775 590.968C349.027 590.337 351.111 588.506 350.985 588.254C350.858 588.001 349.974 583.328 349.974 583.328L350.542 582.635L348.964 580.678L348.901 578.28L365.695 579.038L367.905 575.63V574.684L370.303 571.084L370.935 569.379L375.417 553.343L365.252 553.405L350.668 550.628C350.668 550.628 348.079 550.188 347.826 550.188C347.572 550.188 325.541 550.126 325.541 550.126C325.541 550.126 322.698 549.938 322.384 549.938C322.069 549.938 318.217 547.981 318.217 547.981C318.217 547.981 309.821 547.727 309.505 547.727C309.189 547.727 299.719 550.317 299.719 550.317L295.299 552.527L292.143 553.791" stroke="#B0A8A8" stroke-width="2" stroke-linecap="round" stroke-linejoin="round"/>
<path d="M460.65 45.805L461.849 45.993L464.185 49.214H465.006L466.077 50.35L471.004 53.823L471.888 52.877L472.898 53.256L471.699 54.393L476.371 57.234L476.244 58.372L476.939 59.191L477.823 59.065L477.885 60.391L479.842 61.275L477.946 63.611V64.243L477.506 64.81L476.939 64.431L476.118 65.947L477.696 66.894L476.244 67.967L474.729 68.661L475.613 70.492H477.257L485.843 83.812L492.472 91.452L500.617 96.944L495.314 100.67L497.965 105.847L504.907 116.076L501.12 118.791L497.965 120.18L478.772 145.875L476.374 142.781L474.924 142.719L472.651 144.297L456.489 124.473L448.787 116.013V110.773L447.145 110.962L446.892 107.3L444.241 107.995L444.053 105.848L432.563 111.405L430.985 108.437L429.28 109.195L428.143 108.816L426.439 109.827L426.627 110.459L423.027 112.542L421.385 112.227L420.564 109.26L418.986 109.701L418.04 109.512L417.661 107.934L415.072 105.409L415.261 103.705L414.123 102.315" stroke="#B0A8A8" stroke-width="2" stroke-linecap="round" stroke-linejoin="round"/>
<path d="M302.107 368.829L300.589 363.474L303 363.384L304.875 361.24L308.268 355.615V354.72L310.679 354.542L312.018 358.021L312.732 357.843L312.018 356.146L312.464 354.808L312.375 354.003L314.964 354.628L316.482 355.878L318.628 355.433L321.396 353.913L323.36 352.484L324.076 352.929L324.881 352.035L325.326 352.48H327.11L328.54 352.302L329.345 351.497C329.345 351.497 330.506 351.14 331.131 351.14C331.756 351.14 333.095 351.677 333.095 351.677L334.881 351.32L337.47 349.535L337.915 349.179L339.61 349.535L341.842 349.445L344.967 348.106L347.197 347.75L348.982 347.304C348.982 347.304 349.429 346.768 349.964 346.768C350.5 346.768 351.659 346.768 351.659 346.768H353.265L353.979 346.589L354.784 347.483L355.5 346.589C355.5 346.589 358.354 345.964 358.714 345.964C359.07 345.964 359.875 345.518 359.875 345.518V344.983L362.375 345.608L365.409 344.537L365.944 343.287L366.839 343.108L370.143 344.447L372.018 345.341C372.018 345.341 371.572 345.787 372.375 345.787C373.178 345.787 374.518 345.518 374.518 345.518C374.518 345.518 374.518 345.339 374.697 344.625C374.877 343.91 375.768 342.393 376.127 342.035C376.482 341.679 377.732 340.875 377.732 340.875H380.232L380.768 341.679L382.018 341.41L384.162 341.945L384.967 343.195L385.947 342.302H389.162C389.162 342.302 390.322 341.766 390.947 341.766C391.572 341.766 392.732 341.497 392.732 341.497C392.732 341.497 392.464 340.783 392.822 340.783C393.18 340.783 395.053 339.979 395.053 339.979L395.499 339.264L394.783 337.745L394.694 335.781L395.499 334.8V334.085L394.518 333.729V332.748L406.037 330.873L407.107 330.604L416.928 331.854L424.248 327.389L429.964 328.371L443 328.472" stroke="#B0A8A8" stroke-width="2" stroke-linecap="round" stroke-linejoin="round"/>
<path d="M566.393 224.99L567.911 225.17L569.342 224.545L568.717 223.026L567.911 222.222L568.717 220.704L569.61 219.633L569.342 215.704L568.092 213.738L568.271 212.399L564.878 204.363L564.697 201.774L573.447 176.06L574.697 174.185L574.786 169.899H585.322" stroke="#B0A8A8" stroke-width="2" stroke-linecap="round" stroke-linejoin="round"/>
<path d="M386.393 172.222L410.857 182.043L409.878 191.062L407.197 198.74L407.732 207.581L413.178 212.937L413.357 217.49L409.072 221.956L409.878 224.545" stroke="#B0A8A8" stroke-width="2" stroke-linecap="round" stroke-linejoin="round"/>
<path d="M372.284 127.58L372.464 129.275L381.034 143.382L382.194 143.025L383.714 146.15L382.819 147.311L383 150.882L386.304 156.686L386.393 160.436L385.768 161.239L386.929 162.669L389.518 162.759L390.412 164.989V169.275L386.662 171.955L375.857 185.614L371.572 195.614L368 194.097L345.229 173.115L342.461 173.651L341.836 172.67L339.336 174.189L340.406 174.903H339.066L333.887 180.26L330.316 179.635L330.137 181.153L327.458 179.724L325.226 179.903L322.548 178.564L322.458 177.76L319.601 177.67L318.622 175.974L317.101 174.456" stroke="#B0A8A8" stroke-width="2" stroke-linecap="round" stroke-linejoin="round"/>
<path d="M546.765 19.351L552.195 23.771L556.993 29.959L556.109 33.242L554.72 35.01L555.352 35.389L557.12 34L560.15 34.379L563.938 38.672L565.959 43.723L565.832 47.89L564.441 49.911L564.062 52.057L564.441 53.572L563.557 57.613L561.536 62.665L559.011 66.706L558.506 69.23L565.829 69.861L580.601 62.918L584.388 63.044L590.197 61.906L596.134 59.885L597.524 62.157L600.049 60.641L602.069 60.515" stroke="#B0A8A8" stroke-width="2" stroke-linecap="round" stroke-linejoin="round"/>
<path d="M588.182 139.938L586.286 141.329L586.539 142.592L575.556 142.844L573.283 143.728L571.137 146.127L568.865 147.011L568.612 145.369L568.865 140.696L566.719 142.086L564.32 139.814L564.699 138.298L561.037 136.403C561.037 136.403 558.891 136.15 558.262 135.898C557.63 135.645 552.957 133.752 552.2 133.5C551.443 133.248 544.498 129.712 544.498 129.712L537.682 125.293L531.62 120.873L526.569 117.59L522.781 114.939L519.499 110.014L520.132 106.984L527.201 103.449L529.852 101.554C529.852 101.554 535.408 95.745 535.535 95.242C535.661 94.736 536.925 93.096 537.178 92.591C537.431 92.086 543.366 85.394 543.366 85.394L551.321 74.283L555.741 69.105H558.392" stroke="#B0A8A8" stroke-width="2" stroke-linecap="round" stroke-linejoin="round"/>
<path d="M399.66 660.547L400.924 656.758L401.935 656.38L401.808 654.484L403.451 656.253L405.849 656.632L405.596 655.874L407.742 656.001L420.621 652.718L420.874 650.068L423.904 651.331H427.565L438.424 641.86L443.854 645.648L452.188 638.072L451.304 636.808L457.742 632.01L458.881 633.4L460.017 632.262L459.891 630.999L462.288 629.988L464.813 630.367L466.202 631.126L466.581 629.988L468.351 630.241L473.276 628.598H480.978L481.736 635.795L485.019 641.352V651.201L488.302 657.011" stroke="#B0A8A8" stroke-width="2" stroke-linecap="round" stroke-linejoin="round"/>
<path d="M491.018 519.378L492.722 520.135L498.72 509.971L497.836 509.339L498.024 508.202L497.582 507.887L499.539 506.563L499.602 505.678L500.612 504.984L503.264 504.732H507.304L507.492 505.172L508.757 502.456L508.883 497.027L511.154 496.521L511.848 497.972L513.742 500.436L516.015 502.456L518.856 504.287L521.318 505.93L523.339 508.707L524.663 511.549L524.789 513.57L524.852 515.527H527.249" stroke="#B0A8A8" stroke-width="2" stroke-linecap="round" stroke-linejoin="round"/>
<path d="M650.5 312.134L651.303 308.563L650.408 304.991L648.533 303.386L645.053 302.315L643.089 300.975L640.232 297.94L638.893 295.709L637.553 294.727L635.947 294.192L633.626 294.371C633.626 294.371 632.197 294.192 631.842 293.656C631.485 293.121 630.056 289.102 630.056 289.102C630.056 289.102 631.485 285.621 631.661 285.263C631.842 284.906 634.967 284.013 634.967 284.013C634.967 284.013 637.822 284.994 638.181 284.727C638.536 284.459 640.95 283.656 640.95 283.656C640.95 283.656 641.485 283.211 641.931 282.852C642.376 282.496 643.536 282.048 644.967 281.692C646.396 281.336 648.271 279.192 648.271 279.192L649.61 276.336L649.256 270.979L647.825 269.015L645.95 267.675C645.95 267.675 645.414 266.871 645.235 266.515C645.056 266.159 643.092 264.371 643.092 264.371L641.661 263.3L639.967 262.675C639.967 262.675 639.251 261.694 639.072 261.069C638.893 260.444 637.911 259.373 637.911 259.373L636.661 257.944" stroke="#B0A8A8" stroke-width="2" stroke-linecap="round" stroke-linejoin="round"/>
<path d="M156.75 618.56L162.402 616.73L167.707 616.098L173.011 616.857L177.178 619.128L180.713 622.284L183.236 626.072L187.15 630.744L190.56 633.52L195.105 633.9L199.146 632.384L203.186 629.48L207.732 621.905L210.636 615.969L215.308 610.159L219.98 605.361L221.624 603.97L224.147 607.127L223.895 608.642H224.906V610.412L227.43 614.326L229.326 615.337L229.958 617.105L229.2 618.749" stroke="#B0A8A8" stroke-width="2" stroke-linecap="round" stroke-linejoin="round"/>
<path d="M629.697 545.17L629.786 538.74L627.197 539.095L623.357 539.006L621.572 538.291L618.893 538.47C618.893 538.47 617.018 538.115 616.393 537.936C615.768 537.756 611.482 536.595 611.482 536.595L607.376 534.72L606.126 533.561L605.232 533.74L603.893 532.045L602.911 531.329L599.786 529.098L600.592 528.028L599.786 527.673L599.518 525.442L598.625 525.621L598.533 524.281L597.908 522.496L595.678 523.21L595.322 519.996L594.697 518.656L595.592 518.476L595.411 494.192L594.431 493.567L594.876 489.817L597.021 489.906L600.235 490.801L602.381 491.07L604.97 490.713L606.131 489.554L607.47 488.838L612.2 486.963L611.306 485.088L616.485 480.624L622.2 478.929L624.61 478.838L625.235 484.107L626.217 484.823L627.286 489.287V490.717L630.592 495.985L631.396 496.432V497.951C631.396 497.951 633.896 498.665 633.806 499.11C633.717 499.557 634.251 500.985 634.251 500.985L635.947 501.255L637.467 502.774L639.61 502.595L639.342 503.489L640.322 503.759L643.178 507.063L645.322 507.242L647.018 509.563L648.178 509.473L648.268 510.454L648.088 511.435L650.143 512.149L650.232 513.31L657.018 517.505L657.553 516.255C657.553 516.255 656.748 516.255 656.482 515.899C656.213 515.543 655.857 514.38 655.857 514.38L656.036 512.06L657.197 512.329L659.428 511.524L661.033 512.06L663.803 510.72L665.322 510.54L667.107 510.095L669.786 509.201L670.322 508.13L671.928 508.04L674.072 509.38L675.053 510.095L676.303 509.915L676.393 511.61H677.374L678.089 513.755L684.694 511.435L694.158 511.524L694.069 512.685H695.319C695.319 512.685 696.033 511.613 696.839 511.613C697.643 511.613 709.783 510.81 709.783 510.81L709.515 513.399L710.765 514.204L711.925 515.988L712.194 516.793L711.569 517.149L710.675 516.168L708.979 516.079L708.085 515.274L707.816 516.524L706.21 517.863L706.39 519.113L706.21 520.81L705.405 521.435L704.96 521.344L702.64 526.701L702.729 527.682L703.354 528.216L703.533 529.735L705.854 531.341H707.015L708.8 532.146L711.3 531.521L711.925 531.877L714.245 531.162L715.585 531.877L717.28 533.752L717.816 534.912L717.547 537.412L717.277 538.482L714.598 540.448L713.169 539.287L712.813 539.643L713.081 540.268L712.456 540.357L712.188 541.877L711.919 544.107L712.723 546.963L714.954 550.179L717.098 551.698L718.079 551.518L719.509 552.232C719.509 552.232 719.509 552.679 720.223 552.948C720.938 553.216 723.794 553.929 723.794 553.929L725.223 554.732L725.669 555.804L725.313 556.518L723.706 558.037L721.652 559.287L724.331 565.807L723.887 566.075L724.331 566.79L722.813 567.95L724.152 569.557L725.402 571.7L723.527 572.505L723.172 574.024L724.422 575.005L722.277 576.524L720.581 576.88L720.226 577.149L716.206 577.06L715.137 577.685L714.956 576.435L711.027 576.79L708.081 577.594" stroke="#B0A8A8" stroke-width="2" stroke-linecap="round" stroke-linejoin="round"/>
<path d="M332.802 511.359L335.265 512.496L338.926 513.255H339.811L339.937 514.265L341.453 514.391L343.223 515.529L344.866 517.234L347.516 517.36L349.599 516.919L351.495 515.024L351.935 513.128L353.072 511.485L353.64 510.348L353.702 508.579L354.775 507.063L355.848 505.799L354.143 504.914L353.324 503.777L355.219 502.513L357.808 502.073C357.808 502.073 360.396 502.83 360.775 502.83C361.154 502.83 363.364 503.272 363.364 503.272H365.068L358.818 508.511L357.241 507.06L355.724 509.584L354.84 511.479L354.778 513.815L355.093 514.256L358.122 511.732L358.628 512.931L362.542 511.353L363.361 513.499L364.939 513.246L365.76 515.392L361.405 516.969L362.036 519.746L361.469 520.061L361.784 521.071L362.036 523.344L364.939 522.837H367.717L377.566 518.544L379.965 519.49L381.038 521.511L380.47 521.95L378.199 520.814L374.22 523.844L371.568 523.906L371.696 525.106L370.937 525.358L370.432 526.81L371.189 528.201L370.432 528.958L371.126 530.222L370.368 530.98L371.313 531.295L373.144 533.566L375.542 532.429L379.078 531.609L380.467 530.789L381.035 531.609L379.583 532.934L378.51 533.061L380.026 534.197L381.038 534.26L381.29 535.079L381.228 535.712L382.553 536.53L382.995 536.468L386.973 542.78L386.846 543.993L386.214 546.014L387.286 546.454L387.979 548.223L386.654 550.244L386.716 551.381L388.485 551.319L389.431 552.204L388.421 553.594L387.474 555.615L384.633 554.604L381.665 553.845L377.751 553.467H375.668" stroke="#B0A8A8" stroke-width="2" stroke-linecap="round" stroke-linejoin="round"/>
<path d="M249.717 529.226L252.18 529.54L253.126 528.216L254.957 528.973C254.957 528.973 255.336 528.407 255.589 528.407C255.841 528.407 257.357 528.659 257.357 528.659L259.819 530.428L261.337 530.176L262.474 531.501L264.37 529.923H265.189L266.009 528.785L267.903 529.226L268.85 528.342L270.176 528.089L270.489 528.404L269.1 529.349L268.468 529.411L268.974 530.296L268.786 530.928L267.647 530.866L267.585 533.076L269.48 533.516H271.184L272.384 532.632L272.951 531.434L274.088 529.035L275.161 529.288" stroke="#B0A8A8" stroke-width="2" stroke-linecap="round" stroke-linejoin="round"/>
<path d="M142.83 518.115L148.386 520.891H153.69L155.711 520.512H156.721L157.353 521.776L158.618 522.66L159.502 524.303L158.489 529.86L152.177 531.881L157.102 538.572L163.92 549.304L165.436 548.166L170.234 552.839L172.004 552.459L173.773 553.471L177.434 556.373L178.445 558.645L179.71 558.897L179.331 560.667L177.94 562.562L175.29 563.952L174.53 566.224L175.29 567.235L177.813 566.35L179.959 565.212L184.631 565.086L186.902 566.097L187.914 569.127L187.662 571.525L188.041 572.536L187.028 573.167L186.397 575.063V576.453L181.977 580.241L181.851 585.418L182.1 585.796L181.848 587.439L187.404 585.67V586.807L189.425 586.68L189.93 587.692L192.96 585.671L193.592 586.05L199.527 586.302L201.171 584.912L204.075 584.533L209.252 581.883L209.126 583.02L216.068 589.333V590.217L217.08 589.964L218.47 590.848L220.742 589.205L221.879 589.711H223.773L225.669 589.459L228.192 591.605" stroke="#B0A8A8" stroke-width="2" stroke-linecap="round" stroke-linejoin="round"/>
<path d="M263.923 315.452L264.554 313.557L266.826 310.527L267.079 301.435L270.612 299.414L274.908 295.753L277.179 294.995L277.81 295.627L282.23 295.753L287.028 292.596L290.943 293.607L291.955 292.849L292.587 295.627L293.976 294.869H296.375L296.121 295.753L297.259 296.384L296.121 297.395L293.975 298.658L294.859 300.553L294.985 302.825H296.503L298.271 305.981L298.776 307.877L299.914 307.244H304.081L305.976 306.613L309.385 305.097C309.385 305.097 308.88 304.592 309.385 304.592C309.891 304.592 311.782 304.339 311.782 304.339L311.909 303.455L311.151 302.57C311.151 302.57 310.393 303.075 310.266 302.57C310.14 302.065 309.888 299.287 309.888 299.287L310.898 297.645L315.317 297.014L317.716 297.645L316.832 294.11L316.958 292.973L315.693 291.584C315.693 291.584 316.326 289.815 317.337 290.067C318.348 290.321 319.105 290.447 319.105 290.447L319.991 289.31L322.515 289.689L323.02 289.815L323.778 288.931H325.421L326.811 289.057L329.715 287.289L330.851 288.931L333.755 289.815V290.953L338.932 290.826L337.922 291.837L339.185 293.983L340.322 290.954L342.847 291.459V292.722L348.277 281.61L347.14 277.95L332.114 281.231L301.936 283.127L293.728 268.228L292.718 268.354L289.435 265.325V264.061C289.435 264.061 285.679 258.812 285.268 257.999C285.002 257.475 282.871 257.62 282.871 257.62L283.25 255.222L281.859 254.211V253.454L280.596 254.211L280.975 255.853V256.737L279.333 256.485L278.701 257.749L276.05 256.485L275.798 255.222L274.66 255.601L274.027 253.455L271.505 253.707H269.358L267.59 251.938L265.569 249.667L264.18 250.551C264.18 250.551 263.928 248.783 264.054 248.279C264.18 247.775 263.549 246.008 263.549 246.008C263.549 246.008 263.801 245.376 263.549 244.492C263.296 243.607 263.043 242.723 263.043 242.723L263.296 240.829L264.054 240.07L263.17 237.672L263.043 234.895" stroke="#B0A8A8" stroke-width="2" stroke-linecap="round" stroke-linejoin="round"/>
<path d="M447.77 575.441L450.738 573.23L451.811 573.545L452.758 572.851L453.516 573.798L455.157 573.545C455.157 573.545 456.736 569.692 456.549 569.378C456.36 569.064 455.223 567.926 455.223 567.926L458.251 564.265C458.251 564.265 457.433 564.012 457.307 563.507C457.18 563.002 457.118 559.087 457.118 559.087L455.918 557.762L453.897 556.69L454.024 555.931L458.253 554.794L460.904 554.856V553.466L462.861 553.278L464.06 553.783L464.818 553.845L465.07 551.95L468.291 551.888L468.858 559.529L470.248 559.591L470.816 559.844L471.321 559.151L473.657 559.53L474.922 559.718C474.922 559.718 475.235 559.404 475.553 559.465C475.867 559.527 476.311 559.527 476.311 559.527L476.437 560.791H477.321L477.574 563.315L478.395 565.019L478.773 567.608L478.962 570.07L479.973 571.901L480.604 573.922L480.857 576.068L481.172 576.888L482.94 578.718L483.382 578.53L484.519 579.982" stroke="#B0A8A8" stroke-width="2" stroke-linecap="round" stroke-linejoin="round"/>
<path d="M465.053 224.544L464.25 222.044L463.625 220.525L463.803 218.114L465.5 216.15L465.589 214.544L463.982 211.775L462.378 208.83L461.753 201.598L459.878 197.669L459.786 193.294L465.232 189.634L468.357 185.438L470.232 182.848L474.161 179.098L475.768 176.152L477.553 173.207L478.268 171.421L478.624 169.19L480.143 167.404L481.482 165.975L472.464 151.065L477.194 147.85L478.714 146.065" stroke="#B0A8A8" stroke-width="2" stroke-linecap="round" stroke-linejoin="round"/>
<path d="M505.031 116.074L514.564 111.527L519.362 109.95" stroke="#B0A8A8" stroke-width="2" stroke-linecap="round" stroke-linejoin="round"/>
<path d="M799.556 479.602L803.723 471.648L804.859 471.901L806.503 467.86L807.261 466.218V461.293L806.122 458.768L807.766 456.747L811.049 454.349L813.07 452.328V451.696L815.216 449.927L815.974 450.053V448.284L825.318 446.138L829.611 445.38L828.98 442.477L854.486 434.649L854.991 435.533L855.75 435.028V433.637L858.148 433.132L863.83 429.218L865.976 426.567L866.355 424.925L868.501 424.419L868.628 423.029L868.88 421.008L871.026 418.358L872.797 417.852L874.439 416.463L876.334 414.317L877.977 410.782L879.619 410.024L884.545 410.656L888.712 411.92L890.983 413.436L892.753 417.098C892.753 417.098 893.132 418.993 893.637 419.369C894.142 419.748 895.908 420.128 895.908 420.886C895.908 421.644 895.782 422.781 895.782 422.781L896.287 423.034L897.679 422.403L897.805 423.792L896.794 424.298L894.898 424.803L894.393 426.32L895.024 428.466L892.753 429.603L892.88 430.993L893.638 431.751L893.512 433.52L896.54 436.55L896.794 437.939L896.287 441.096L895.277 441.475L896.921 443.118L898.184 442.613L897.047 445.894L898.563 447.915L899.447 448.548H901.091" stroke="#B0A8A8" stroke-width="2" stroke-linecap="round" stroke-linejoin="round"/>
<path d="M712.178 515.337L713.819 514.326L714.451 516.095L715.716 516.853L717.611 518.117L720.136 517.611L722.03 520.641L722.409 522.912L724.681 525.563L725.944 527.079L728.469 526.574L729.48 527.838L730.616 526.953L732.889 527.585L734.657 527.71L735.796 528.596H737.185L738.195 529.227L738.953 528.596L741.099 529.606L744.256 526.829L748.17 524.558L751.83 522.16L753.221 519.763L752.082 517.365L759.911 504.612L762.562 500.445L763.446 499.812L764.583 499.686L766.729 494.003L769.254 489.33L771.275 485.922L777.714 485.669V486.427L781.755 486.175V487.69L783.144 487.312L783.649 486.301L786.553 486.806L788.574 488.323L789.713 487.185L793.625 485.796L795.142 485.922L795.648 484.406L797.542 482.385L799.438 480.616L801.332 482.259L803.353 483.143L806.636 484.659L807.772 485.038L807.899 484.154L813.834 487.562L819.013 488.447L826.714 489.331L829.491 489.71L830.882 490.216L831.893 491.986" stroke="#B0A8A8" stroke-width="2" stroke-linecap="round" stroke-linejoin="round"/>
<path d="M468.731 552.08L478.012 551.828L477.949 550.438L478.833 548.986L478.454 547.787L476.752 547.599L477.509 545.453L477.636 541.979L479.34 542.359L484.578 542.17L485.778 543.182L487.421 543.12L487.735 540.974L487.673 539.836L488.744 537.753L488.807 535.732L487.86 535.227L490.259 531.248L487.102 528.092L486.029 527.46L490.828 519.189L487.607 517.99H485.398L483.252 516.538L482.492 516.412L481.481 515.719L479.839 515.593L479.019 514.581C479.019 514.581 477.946 513.445 477.441 513.383C476.936 513.321 471.948 511.805 471.948 511.805L471.19 512.245L464.814 510.414L464.435 512.057L461.215 510.985L457.866 510.671L457.804 509.724L453.511 509.851L452.816 505.998L454.268 502.651L453.7 502.525L454.521 500.882L454.584 497.915L453.824 497.852L453.384 496.21L454.395 495.39C454.395 495.39 455.973 494.57 456.099 494.318C456.225 494.065 456.731 493.054 456.793 492.613C456.855 492.173 456.981 491.728 456.981 491.728L457.297 491.666L457.044 489.203L456.538 489.015L456.6 487.311H457.421L456.853 486.112L456.916 484.787L453.82 484.975L450.918 485.29L447.696 486.175L441.887 489.584C441.887 489.584 438.604 491.855 438.352 491.855C438.099 491.855 436.773 492.109 436.773 492.109L432.228 495.391L428.502 497.412C428.502 497.412 425.786 497.726 425.154 497.538C424.522 497.35 421.367 496.149 420.925 495.961C420.484 495.772 416.696 493.814 416.696 493.814L413.54 491.352L410.698 488.828L407.351 488.07L405.33 488.197L402.488 488.954L399.898 490.154L396.87 492.49L395.226 493.374" stroke="#B0A8A8" stroke-width="2" stroke-linecap="round" stroke-linejoin="round"/>
<path d="M301.839 204.99L303.893 206.42L304.162 207.49L303.447 207.847L305.412 209.276H306.842L312.912 210.706L322.197 215.974L324.518 216.689C324.518 216.689 325.412 216.599 326.037 216.51C326.662 216.42 329.162 216.153 329.162 216.153C329.162 216.153 331.128 216.778 331.753 216.778C332.378 216.778 334.072 217.314 334.072 217.314L334.697 217.045L335.322 218.206C335.322 218.206 335.679 219.187 336.304 219.187C336.929 219.187 339.25 219.365 339.25 219.365L339.159 218.74L340.054 218.92L340.679 218.474L341.75 219.456L343.179 219.545L347.284 221.151L348.625 221.687C348.625 221.687 348.534 220.793 349.159 221.24C349.784 221.687 351.659 222.937 351.659 222.937L352.464 224.365L354.429 224.99L356.125 227.135L358.179 228.831L358.534 229.99L360.319 230.795L361.569 232.939C361.569 232.939 362.104 234.189 362.64 234.458C363.176 234.726 365.229 235.617 365.229 235.617L367.015 237.047L369.159 239.012L370.854 241.066L371.125 242.672L372.284 245.351L373.179 247.941L374.518 249.726L373.357 262.851L368.268 263.833L364.429 265.172L347.554 278.028" stroke="#B0A8A8" stroke-width="2" stroke-linecap="round" stroke-linejoin="round"/>
<path d="M457.365 484.969L459.89 485.031L461.785 485.977L464.628 487.176L466.899 488.248C466.899 488.248 468.856 488.376 469.109 488.376C469.362 488.376 471.192 488.188 471.445 487.996C471.698 487.806 473.529 486.985 473.591 486.671C473.653 486.357 474.788 484.65 474.788 484.65L475.801 483.386L474.854 482.819C474.854 482.819 474.16 483.83 473.781 483.386C473.402 482.946 472.455 482.376 472.455 482.376L472.077 481.177L473.215 480.039V479.155L473.907 479.028L473.529 475.176L471.383 474.23L472.899 469.495L471.447 469.055L472.015 465.202L467.848 465.39L463.934 463.307L453.328 462.928L438.996 458.003L441.839 450.741L442.027 445.059L444.805 440.703L439.88 441.841L439.818 443.293L439.06 442.093C439.06 442.093 438.113 443.357 437.86 443.231C437.608 443.105 437.419 442.537 436.724 442.411C436.03 442.284 430.787 442.284 430.787 442.284C430.787 442.284 431.228 443.484 430.849 443.296C430.47 443.108 429.46 442.411 429.145 442.349C428.829 442.287 425.546 442.537 425.546 442.537C425.546 442.537 421.064 443.043 420.619 443.043C420.178 443.043 416.767 443.231 416.515 443.231C416.262 443.231 412.979 443.293 412.979 443.293C412.979 443.293 410.012 444.238 409.633 444.238C409.254 444.238 408.495 444.491 408.055 444.617C407.613 444.744 406.792 446.387 406.792 446.387L406.098 446.513L405.719 448.849H404.835L404.961 450.048L404.267 450.362C404.267 450.362 403.762 451.626 404.14 451.879C404.519 452.132 404.772 452.637 404.772 452.637L404.331 453.204L404.585 454.024L404.143 454.782C404.143 454.782 403.765 455.729 403.197 455.602C402.631 455.476 401.934 455.349 401.872 455.79C401.81 456.231 401.934 457.433 401.934 457.433L402.502 458.444L402.88 459.58L402.186 460.213L401.302 460.086V461.159H396.756" stroke="#B0A8A8" stroke-width="2" stroke-linecap="round" stroke-linejoin="round"/>
<path d="M540.262 483.643L536.601 478.718L534.202 476.761C534.202 476.761 531.74 475.751 531.426 475.563C531.111 475.375 528.017 473.794 527.638 473.667C527.259 473.54 524.861 472.089 524.861 472.089L522.966 469.818C522.966 469.818 521.322 467.42 521.262 467.102C521.199 466.787 519.936 462.935 519.936 462.935L519.873 462.115L522.211 461.296L523.601 460.916L525.369 461.548L526.947 461.422L530.862 459.718L532.504 459.53L533.137 456.753L534.335 455.236L534.968 452.206L535.281 449.051L535.093 448.104L534.587 447.473L535.533 445.201L537.742 444.696L540.267 441.792L542.665 440.403L543.737 438.634L534.204 413.947L540.202 413.314L542.853 414.134L546.073 414.261L547.843 412.24L549.168 409.969C549.168 409.969 549.23 407.571 549.23 407.001C549.23 406.431 549.292 403.339 549.292 403.339L551.564 403.845L557.182 402.834H559.013L561.663 400.813L562.104 399.677L567.47 395.321L568.922 393.805L569.994 391.659L571.006 391.092C571.006 391.092 573.089 390.713 573.216 390.461C573.342 390.208 576.371 388.062 576.371 388.062L578.266 386.168H578.961L581.423 384.525L583 384.337L586.095 384.589L587.484 384.651L587.863 385.977L587.611 387.746L589.694 387.873L589.82 389.198L602.195 392.985L601.754 393.805L605.354 395.889L605.922 396.774L606.427 398.037H607.499L608.258 400.561L608.637 401.825L611.605 401.511L610.91 402.457L610.973 403.341L611.605 404.1L611.857 405.11L612.551 406.309L614.446 405.298H615.898V406.624H617.729L617.791 407.382L619.622 407.256L619.936 408.201L619.305 409.147L620.315 409.589L620.063 410.725L617.853 412.746L614.001 414.83L611.664 415.901L610.087 417.292L608.004 419.69L606.93 420.826L605.857 423.669L606.046 425.373L606.299 427.077L607.751 429.098L609.645 430.489L611.541 431.121" stroke="#B0A8A8" stroke-width="2" stroke-linecap="round" stroke-linejoin="round"/>
<path d="M569.072 574.097L566.482 571.328C566.482 571.328 563.893 569.008 563.714 568.649C563.533 568.294 561.214 564.719 561.214 564.364C561.214 564.008 560.319 560.883 560.319 560.434C560.319 559.988 559.25 556.328 559.158 555.88C559.069 555.434 557.64 552.575 557.464 552.219C557.283 551.864 555.232 549.809 555.232 549.809C555.232 549.809 553.001 547.844 552.464 547.578C551.927 547.311 546.928 544.722 546.928 544.722C546.928 544.722 544.158 543.117 543.803 542.938C543.447 542.758 540.768 540.347 540.768 540.347L539.25 538.383L539.158 537.758L540.14 537.313L542.015 538.742L544.783 537.402L547.464 537.581L550.678 535.617L554.607 534.722L555.232 535.347L557.018 535.169L557.553 535.079L560.678 534.9L562.283 536.42L563.979 536.598L564.873 537.403L565.944 537.048L566.839 535.262L568.357 535.707L568.626 534.637L569.431 534.726L570.325 531.871L569.61 531.246L570.95 529.191L570.504 528.746L571.575 527.316L571.039 525.531L569.879 525.621L569.164 524.996L570.86 522.765L571.217 523.301L572.286 521.781L573.982 522.406L574.607 521.781C574.607 521.781 573.982 520.442 573.982 520.086C573.982 519.729 574.786 514.461 574.786 514.461L575.857 514.371L576.213 512.851L579.248 509.457L578.713 509.188L580.408 506.153L574.428 503.207L577.553 497.938L578.803 493.743V483.743L582.732 483.387C582.732 483.387 582.732 480.531 582.822 480.173C582.911 479.817 583.178 478.923 583.178 478.923L581.393 478.207L579.873 478.563L579.428 477.403L570.408 478.923L568.979 480.082L569.335 480.707L564.335 487.226L560.675 487.317L557.729 480.621L551.658 480.531L549.963 480.085L548.533 480.176L547.104 481.335L545.765 483.301L544.245 484.371L542.726 485.085L540.582 486.246L539.332 485.801L537.457 486.156L538.351 488.476L538.707 490.531L537.902 493.301L539.422 494.104L538.797 494.999L539.066 497.32L538.262 501.07L537.726 503.034V504.195L539.245 505.176L537.37 508.479L538.441 508.926L538.351 510.354L537.457 511.784L535.762 511.695L533.53 512.765H532.549L530.405 514.82L529.424 514.999L529.155 514.104L528.53 515.534L527.637 515.624L527.546 517.409L528.707 519.554L529.512 520.268V521.249L531.117 522.32L531.027 523.926L530.223 523.835V524.64L528.973 524.82L530.578 526.695L533.078 528.838L535.31 531.695L537.274 535.088L539.328 538.213" stroke="#B0A8A8" stroke-width="2" stroke-linecap="round" stroke-linejoin="round"/>
<path d="M522.283 397.045L526.569 394.634L536.569 392.402L541.125 392.134L550.854 396.954L550.944 398.295L549.339 402.939" stroke="#B0A8A8" stroke-width="2" stroke-linecap="round" stroke-linejoin="round"/>
<path d="M271.572 363.829L275.592 363.92L276.396 365.349L279.253 366.954L280.503 366.685L282.288 369.095L282.467 370.345L283.628 371.06L283.357 372.31L285.232 373.381L285.679 372.131L287.554 369.9L288.535 373.295L292.194 371.954" stroke="#B0A8A8" stroke-width="2" stroke-linecap="round" stroke-linejoin="round"/>
<path d="M188.351 572.662H189.614L190.374 571.211V569.568L191.318 568.936L192.012 569.568H193.528L194.475 568.495L195.738 568.557L200.725 564.642L210.89 557.194L216.761 552.522L218.15 551.701L220.74 550.944L221.499 549.301L221.561 548.163L222.571 547.217L223.331 545.639L223.268 544.755L224.657 544.441C224.657 544.441 225.796 543.808 225.857 543.556C225.919 543.303 226.172 541.598 226.172 541.598L226.551 541.093L226.803 539.262C226.803 539.262 227.245 538.757 227.498 538.695C227.75 538.633 228.063 538.128 228.695 538.128C229.328 538.128 230.273 538.317 230.526 538.128C230.778 537.94 231.346 537.496 231.725 537.117C232.104 536.738 232.609 534.719 232.609 534.719C232.609 534.719 234.187 533.835 234.63 533.582C235.07 533.329 236.587 532.95 237.279 532.95C237.973 532.95 238.418 533.077 238.418 533.077C238.418 533.077 238.418 532.445 239.11 532.066C239.804 531.687 239.996 531.246 240.941 531.246C241.888 531.246 243.719 530.932 243.719 530.932L244.792 530.805C244.792 530.805 245.802 531.625 246.055 531.563C246.307 531.501 248.076 530.365 248.076 530.365L249.213 529.733H250.034V531.249L254.263 530.682L255.905 532.953L254.263 535.099L253.379 536.425L253.19 538.382L253.822 539.707L255.718 540.021H256.35L256.665 541.347L258.307 542.611L258.433 543.051C258.433 543.051 256.476 544.123 256.162 544.123C255.846 544.123 252.813 545.323 252.813 545.323L251.171 545.196L250.73 546.142C250.73 546.142 251.171 547.659 251.171 547.973C251.171 548.287 252.244 549.93 252.244 549.93L252.684 551.826L253.821 555.107L254.075 555.866C254.075 555.866 254.707 556.812 255.086 557.003C255.464 557.192 255.274 559.275 255.274 559.275" stroke="#B0A8A8" stroke-width="2" stroke-linecap="round" stroke-linejoin="round"/>
<path d="M481.106 628.979H484.009L485.651 628.221L483.002 625.318L481.232 618.88L482.874 618.5L485.399 616.731L486.03 617.363L494.49 613.196L496.511 611.427V611.048L493.607 609.531L490.577 609.279L489.44 608.394L491.082 605.491L487.549 602.208L488.686 601.703L488.307 600.945H486.411L481.108 597.915L484.011 595.769L485.148 593.623L483.632 592.991L484.011 590.72L485.022 590.341L485.148 585.163L483.885 585.794L481.989 585.289L484.64 580.238L487.417 577.208L490.193 575.439L494.234 573.669L499.285 572.406L505.473 572.026L509.261 573.291L513.428 575.562L515.951 579.35L518.602 584.148L522.012 587.305L524.158 589.2L528.831 589.832L533.63 588.189L535.901 584.653L538.425 577.836L538.819 577.764L538.678 576.952L540.949 573.164L544.232 568.618L548.147 565.968L552.819 565.083L557.743 567.229L560.521 569.88L564.183 572.783L567.971 574.3L571.885 575.184L575.293 576.194L578.07 577.837L580.847 580.74" stroke="#B0A8A8" stroke-width="2" stroke-linecap="round" stroke-linejoin="round"/>
<path d="M587.283 334.812L600.589 328.83L611.75 325.171L617.375 323.741L618.714 321.776L619.964 321.866L620.678 322.401L622.375 321.597L623.893 320.972C623.893 320.972 623.893 321.508 624.428 321.419C624.964 321.328 628.447 320.703 628.447 320.703L629.342 321.149L629.967 320.256L631.306 319.81L632.376 319.364L635.681 319.633C635.681 319.633 636.217 319.812 636.575 319.812C636.931 319.812 636.485 319.008 636.485 319.008H639.254L640.149 319.812H645.595" stroke="#B0A8A8" stroke-width="2" stroke-linecap="round" stroke-linejoin="round"/>
<path d="M332.487 466.596L332.74 464.134L337.16 462.113L339.37 467.985L342.591 465.964L344.168 467.542L346.632 466.09L347.577 466.028L349.407 468.93L353.701 466.847L353.954 467.54L358.562 465.898L359.193 467.349L363.613 465.834L364.245 467.411L366.202 466.339L367.719 466.591L368.729 467.663L369.993 469.748L372.834 468.863L372.708 468.484L374.034 468.231L374.16 466.967L379.146 465.831L396.508 461.41L392.529 477.889L394.928 478.141L393.097 483.192L393.537 483.571L392.844 485.088L392.718 486.16L391.014 488.306L390.826 489.883L392.529 490.83L394.36 490.263L395.18 491.526L395.368 492.978L394.23 493.736L387.601 494.115L382.994 495.314C382.994 495.314 377.755 496.577 377.437 496.577C377.121 496.577 373.711 497.588 373.711 497.588L371.313 498.6L369.229 500.242L365.504 502.958" stroke="#B0A8A8" stroke-width="2" stroke-linecap="round" stroke-linejoin="round"/>
<path d="M221.749 603.22L225.284 599.937L228.438 594.001L229.196 591.35L231.217 585.414L233.616 578.345L235.636 574.43L239.046 569.379L242.581 565.591L247.632 561.551L252.557 559.405L257.355 559.152L263.543 558.646L270.106 558.773L274.778 559.026L279.579 558.393L285.766 557.004L290.565 554.858C290.565 554.858 292.209 553.594 292.335 554.099C292.461 554.604 292.082 556.877 292.082 556.877L296.754 556.624L296.502 557.761L298.396 559.656L299.028 559.909L301.553 559.53L302.058 560.289L304.456 559.277L305.72 559.656L309.129 558.013L316.83 556.118L316.198 559.022L314.429 561.925L314.808 562.682L314.05 563.694L312.534 563.061L310.638 563.694L311.396 566.344L312.66 567.482L312.28 569.503L307.734 571.649L307.229 575.437L304.326 575.563V579.097L303.82 582.506L316.953 580.99L317.206 585.41L321.373 587.431L318.849 592.357L320.112 596.145L320.871 599.932L321.123 603.215L328.193 602.583L328.699 604.225L334.887 605.364L332.614 606.248L334.761 607.384L333.623 608.395L333.876 610.291L331.099 612.688L329.836 611.678L328.192 612.942" stroke="#B0A8A8" stroke-width="2" stroke-linecap="round" stroke-linejoin="round"/>
<path d="M521.764 506.118L519.113 502.204C519.113 502.204 518.547 498.605 518.547 498.163C518.547 497.723 519.87 493.618 519.87 493.365C519.87 493.112 522.714 489.261 522.714 489.261L525.681 487.177L528.964 485.913L530.667 486.041L532.939 485.599L535.275 484.78L537.611 484.465C537.611 484.465 539.568 484.653 539.757 484.403C539.945 484.15 543.23 482.951 543.23 482.951C543.23 482.951 545.124 481.625 545.124 481.372C545.124 481.12 546.324 480.3 546.324 480.3L546.892 478.217" stroke="#B0A8A8" stroke-width="2" stroke-linecap="round" stroke-linejoin="round"/>
<path d="M365.506 579.102L367.842 580.807L367.904 582.702L369.987 583.775L372.26 583.837L371.502 585.921L373.523 587.371L372.638 589.329L373.079 590.654L375.1 594.507L373.143 594.319L373.332 596.717H370.868L371.501 599.619L399.151 603.346L418.282 609.029L414.62 616.225L419.041 617.046H422.261L423.839 618.624L424.658 622.032L427.688 628.03L427.5 629.987L433.435 636.616L433.498 638.259L434.442 639.079L435.326 638.573L437.851 641.35" stroke="#B0A8A8" stroke-width="2" stroke-linecap="round" stroke-linejoin="round"/>
<path d="M908.274 537.433L906.506 536.171L906.127 534.78L904.609 535.791L903.851 534.78L903.978 533.264L905.114 533.011V531.368L902.339 528.086L902.465 526.949L903.223 526.822L902.97 524.046L902.086 524.298L901.326 522.655L900.063 522.782L899.684 523.918L898.295 524.425L894.128 522.908L888.949 517.603L889.202 516.593L888.444 516.467L888.823 514.824L889.961 512.174V509.396L888.823 507.628L886.802 505.229L889.705 500.304L890.464 500.178L892.61 497.022L892.104 493.108L891.347 492.35L894.123 491.718L896.395 487.551L897.784 487.299L901.319 482.879L900.688 482.625L901.825 481.11L901.193 479.72L899.677 463.305L902.708 451.942L901.19 449.796L901.822 448.405L902.833 449.416L905.104 447.395L904.725 446.763L910.534 441.333L912.43 437.292L913.693 436.408L916.091 437.546L918.994 426.308" stroke="#B0A8A8" stroke-width="2" stroke-linecap="round" stroke-linejoin="round"/>
<path d="M104.697 687.847L104.072 683.203L104.607 683.024L104.429 677.578C104.429 677.578 103.535 675.794 103.357 675.434C103.179 675.078 101.038 672.489 101.038 672.489L98.982 671.149L98.714 668.739L102.107 666.328L104.788 667.133L106.482 667.489L108.089 666.953L108.179 666.239L107.91 665.794H110.679L112.464 664.899L115.944 664.544L116.839 663.739L119.339 664.274L120.143 664.809L125.413 663.828L130.143 663.114L131.929 661.953L133.893 662.044L134.607 662.847L139.253 662.669C139.253 662.669 139.967 662.044 140.503 661.688C141.038 661.331 144.967 660.438 144.967 660.438L146.572 660.169V659.544L150.143 659.633L148.447 643.203L150.947 642.847L155.768 640.794L159.25 638.294L160.143 638.024L159.964 636.864L156.482 635.524L158.357 633.739L157.464 632.309L158.179 631.239L155.947 628.114L157.554 626.419L156.929 624.989L157.554 622.578L158.268 621.684L156.75 618.559L153.625 619.541L149.069 620.434L144.069 620.791L138.979 621.416L131.035 624.541L126.39 626.861L119.694 628.38L113.89 628.291L107.729 626.505L102.375 623.916L98 622.401L96.214 621.955L92.819 622.224L90.944 622.94L90.41 622.938L86.479 623.831L82.91 624.725L80.589 624.995L74.339 624.28L70.679 622.675L64.16 619.1L59.694 616.245C59.694 616.245 54.694 614.191 54.339 614.1C53.982 614.011 51.035 613.831 50.589 613.831C50.143 613.831 45.232 614.187 45.232 614.187L39.518 616.597L34.697 619.367L31.753 621.152L26.663 621.777L21.572 621.597L20.768 621.152" stroke="#B0A8A8" stroke-width="2" stroke-linecap="round" stroke-linejoin="round"/>
<path d="M548.155 480.613L547.776 478.467L547.27 478.593L548.533 474.552L549.165 470.259L550.43 467.609L552.953 465.211L555.225 464.452L557.75 464.326L559.392 465.337H562.928L564.443 463.695L566.968 461.925L569.239 460.535L570.251 458.137L571.009 454.856L572.019 453.086L574.544 451.696L576.565 450.179L578.209 448.917L580.732 448.79L584.141 449.548L586.036 451.317L588.434 452.96L588.56 455.61L588.308 458.134C588.308 458.134 588.055 460.155 588.308 460.785C588.56 461.417 589.697 462.554 589.697 462.554C589.697 462.554 590.71 464.07 590.836 464.575C590.962 465.081 592.604 466.846 592.604 466.846L595.508 468.11L599.675 467.479L602.83 466.215L605.354 465.203L605.986 465.836L608.132 464.698L611.666 464.824L617.35 464.572L620.506 464.319L622.148 464.572L622.653 463.814V463.055L627.073 460.784L627.453 459.9L630.482 461.921L633.259 462.048L634.901 462.553L634.775 463.438L633.133 463.691L632.628 465.207L633.638 467.103V469.879V476.067L633.007 477.962L624.673 479.099" stroke="#B0A8A8" stroke-width="2" stroke-linecap="round" stroke-linejoin="round"/>
<path d="M664.072 375.17L664.161 371.689L663.268 367.224L661.482 363.564L659.161 362.224L655.857 361.243L652.464 360.974H649.875L647.908 359.814L646.928 358.027L646.303 353.743L647.018 351.957L645.947 351.868L645.143 350.618L645.322 348.564L645.857 346.958L644.697 344.814L645.678 343.653L643.714 342.582L642.283 341.243L643 340.439L642.819 339.368L640.408 339.278L640.944 337.135L639.339 336.064L640.053 334.01L638.357 333.385L635.768 332.939L633 333.829L632.194 333.473L628 334.99L623.354 333.65L622.015 331.507C622.015 331.507 622.104 330.077 622.104 329.543C622.104 329.007 622.55 325.971 622.55 325.971L624.155 323.382L626.211 322.668L630.586 322.846L632.64 323.025L636.836 325.971L638.62 326.327L638.711 327.221L639.78 327.577L640.226 326.596L641.745 328.025L644.425 327.579L644.604 324.634L645.675 322.223L646.3 319.902L646.12 318.922L646.655 317.225L648.085 315.44L649.96 313.744L650.585 312.404L651.39 314.994C651.39 314.994 651.835 316.513 652.194 316.869C652.55 317.225 655.589 319.458 655.589 319.458C655.589 319.458 659.694 320.888 660.053 320.977C660.408 321.067 664.339 322.496 664.339 322.496L664.607 324.551L667.197 324.64L667.286 326.335L669.786 325.354L670.143 324.819L671.482 324.283L673.447 324.998L674.878 333.033L676.572 333.303L680.768 331.606L682.107 332.5L689.964 332.321L692.107 329.465L694.161 330.358L694.253 331.073L696.396 329.823L696.753 330.627L697.646 330.092L698.806 331.073L700.325 331.252L701.039 330.627C701.039 330.627 702.021 330.271 702.47 330.271C702.915 330.271 705.414 330.36 705.414 330.36L706.22 330.717L707.649 329.823L709.434 330.358C709.434 330.358 710.953 329.019 711.488 329.019C712.024 329.019 716.845 328.483 716.845 328.483C716.845 328.483 719.524 328.215 719.881 328.037C720.235 327.858 721.399 327.057 721.399 327.057L723.363 333.575L723.899 339.914" stroke="#B0A8A8" stroke-width="2" stroke-linecap="round" stroke-linejoin="round"/>
</svg>
