<svg width="56" height="64" viewBox="0 0 56 64" fill="none" xmlns="http://www.w3.org/2000/svg">
<path d="M35.3092 1.24721e-06L14.0515 36.8989L26.1589 36.1229L20.1727 63.6955L40.0432 27.2335L29.1147 27.2281L35.3092 1.24721e-06Z" fill="#FFD600"/>
<path fill-rule="evenodd" clip-rule="evenodd" d="M27.7611 50.1082C37.8177 50.1082 45.9701 41.9558 45.9701 31.8992C45.9701 21.8427 37.8177 13.6902 27.7611 13.6902C17.7046 13.6902 9.55213 21.8427 9.55213 31.8992C9.55213 41.9558 17.7046 50.1082 27.7611 50.1082ZM27.7611 54.3927C40.1839 54.3927 50.2546 44.322 50.2546 31.8992C50.2546 19.4764 40.1839 9.40575 27.7611 9.40575C15.3383 9.40575 5.26765 19.4764 5.26765 31.8992C5.26765 44.322 15.3383 54.3927 27.7611 54.3927Z" fill="#FFD600"/>
</svg>
