<svg width="206" height="318" viewBox="0 0 206 318" fill="none" xmlns="http://www.w3.org/2000/svg">
<path fill-rule="evenodd" clip-rule="evenodd" d="M102.973 318C102.973 318 102.857 317.883 102.857 317.825L102.798 318C102.798 318 0.5 160.923 0.5 109.304C0.5 33.3348 52.3203 0.284454 102.857 0.167664C153.393 0.284454 205.213 33.3348 205.213 109.304C205.213 160.923 102.973 318 102.973 318ZM103.5 159C136.361 159 163 132.361 163 99.5C163 66.6391 136.361 40 103.5 40C70.6391 40 44 66.6391 44 99.5C44 132.361 70.6391 159 103.5 159Z" fill="#FFD600"/>
</svg>
